<svg width="37" height="39" viewBox="0 0 37 39" fill="none" xmlns="http://www.w3.org/2000/svg">
<path d="M21.0013 8.22244C21.4874 6.79633 22.2914 5.49943 23.3526 4.42982C24.4137 3.36022 25.7042 2.54591 27.1264 2.04849M32.3629 22.9734C28.6745 31.0748 22.3221 37.3173 18.3874 36.023C15.8196 35.1784 15.8361 33.1367 13.1021 32.2374C10.3681 31.3381 9.15084 32.9849 6.60157 32.1463C2.66681 30.8521 1.26053 22.0575 3.10159 13.3485C4.41768 7.16904 7.13533 3.94815 11.2543 3.62431C16.5106 3.20372 18.0641 7.25631 21.0013 8.22244C23.9385 9.18857 27.5944 6.8495 31.5562 10.3022C34.6786 13.0079 34.9905 17.2253 32.3629 22.9734Z" stroke="#DCDEE3" stroke-width="4" stroke-linecap="round" stroke-linejoin="round"/>
</svg>
