<svg width="20" height="20" viewBox="0 0 20 20" fill="none" xmlns="http://www.w3.org/2000/svg">
<path d="M17.8203 9.46855L6.5781 2.59355C6.4835 2.53517 6.375 2.5031 6.2638 2.50064C6.15265 2.49818 6.04285 2.52543 5.9457 2.57957C5.8486 2.6337 5.76765 2.71277 5.7113 2.80861C5.6549 2.90446 5.6251 3.01361 5.625 3.1248V16.8748C5.6251 16.986 5.6549 17.0952 5.7113 17.191C5.76765 17.2869 5.8486 17.3659 5.9457 17.4201C6.04285 17.4742 6.15265 17.5014 6.2638 17.499C6.375 17.4965 6.4835 17.4645 6.5781 17.4061L17.8203 10.5311C17.9126 10.4765 17.9891 10.3988 18.0422 10.3056C18.0954 10.2125 18.1234 10.1071 18.1234 9.9998C18.1234 9.89255 18.0954 9.78715 18.0422 9.694C17.9891 9.60085 17.9126 9.52315 17.8203 9.46855Z" fill="white"/>
</svg>
