<svg width="29" height="28" viewBox="0 0 29 28" fill="none" xmlns="http://www.w3.org/2000/svg">
<path d="M11.5 2V4.01925C11.5 5.06591 10.8552 6.00888 9.87057 6.39891L5.16311 7.92446C3.96353 8.40335 3.1788 9.54875 3.1788 10.8274L2.5 18" stroke="#A5AAB4" stroke-width="2" stroke-miterlimit="10" stroke-linecap="round"/>
<path d="M6.86133 15.2578L6.98108 15.6941C7.23377 16.6227 8.25341 17.4648 9.55196 17.8127L12.5002 18.0002" stroke="#A5AAB4" stroke-width="2" stroke-miterlimit="10" stroke-linecap="round"/>
<path d="M7.5 17L8.5 26" stroke="#A5AAB4" stroke-width="2" stroke-miterlimit="10" stroke-linecap="round"/>
<path d="M17.5 2V4.01925C17.5 5.06591 18.1448 6.00888 19.1294 6.39891L23.8369 7.92446C25.0365 8.40335 25.8212 9.54875 25.8212 10.8274L26.5 18" stroke="#A5AAB4" stroke-width="2" stroke-miterlimit="10" stroke-linecap="round"/>
<path d="M22.1387 15.2578L22.0189 15.6941C21.7662 16.6227 20.7466 17.4648 19.448 17.8127L16.9998 18.0002" stroke="#A5AAB4" stroke-width="2" stroke-miterlimit="10" stroke-linecap="round"/>
<path d="M21.5 17L20.5 26" stroke="#A5AAB4" stroke-width="2" stroke-miterlimit="10" stroke-linecap="round"/>
</svg>
