<svg width="20" height="18" viewBox="0 0 20 18" fill="none" xmlns="http://www.w3.org/2000/svg">
<path d="M7.1875 3.9375H5.5C5.18934 3.9375 4.9375 4.18934 4.9375 4.5V13.5C4.9375 13.8107 5.18934 14.0625 5.5 14.0625H7.1875C7.49816 14.0625 7.75 13.8107 7.75 13.5V4.5C7.75 4.18934 7.49816 3.9375 7.1875 3.9375Z" stroke="#A5AAB4" stroke-width="1.5" stroke-linecap="round" stroke-linejoin="round"/>
<path d="M14.5 3.9375H12.8125C12.5018 3.9375 12.25 4.18934 12.25 4.5V13.5C12.25 13.8107 12.5018 14.0625 12.8125 14.0625H14.5C14.8107 14.0625 15.0625 13.8107 15.0625 13.5V4.5C15.0625 4.18934 14.8107 3.9375 14.5 3.9375Z" stroke="#A5AAB4" stroke-width="1.5" stroke-linecap="round" stroke-linejoin="round"/>
<path d="M15.0625 5.625H16.75C16.8992 5.625 17.0423 5.68426 17.1477 5.78975C17.2532 5.89524 17.3125 6.03832 17.3125 6.1875V11.8125C17.3125 11.9617 17.2532 12.1048 17.1477 12.2102C17.0423 12.3157 16.8992 12.375 16.75 12.375H15.0625" stroke="#A5AAB4" stroke-width="1.5" stroke-linecap="round" stroke-linejoin="round"/>
<path d="M4.9375 12.375H3.25C3.10082 12.375 2.95774 12.3157 2.85225 12.2102C2.74676 12.1048 2.6875 11.9617 2.6875 11.8125V6.1875C2.6875 6.03832 2.74676 5.89524 2.85225 5.78975C2.95774 5.68426 3.10082 5.625 3.25 5.625H4.9375" stroke="#A5AAB4" stroke-width="1.5" stroke-linecap="round" stroke-linejoin="round"/>
<path d="M7.75 9H12.25" stroke="#A5AAB4" stroke-width="1.5" stroke-linecap="round" stroke-linejoin="round"/>
<path d="M17.3125 9H18.4375" stroke="#A5AAB4" stroke-width="1.5" stroke-linecap="round" stroke-linejoin="round"/>
<path d="M1.5625 9H2.6875" stroke="#A5AAB4" stroke-width="1.5" stroke-linecap="round" stroke-linejoin="round"/>
</svg>
