<svg width="20" height="26" viewBox="0 0 20 26" fill="none" xmlns="http://www.w3.org/2000/svg">
<path d="M1.5 8H3.5C4.60457 8 5.5 8.89543 5.5 10V12.2199C5.5 12.4057 5.5259 12.5906 5.57695 12.7693L7.26853 18.6898C7.41654 19.2079 7.34372 19.7607 7.10833 20.2454C6.48776 21.5231 5.84411 23.3441 6.5 24C7.3 24.8 10.5 24.6667 12 24.5H16.5757C17.1491 24.5 17.6805 24.1991 17.9755 23.7075V23.7075C18.5055 22.8241 18.0949 21.6767 17.1248 21.3303L13.2385 19.9423C12.4868 19.6739 11.9667 18.9841 11.9153 18.1876L11.0709 5.09945C11.0268 4.41498 10.6349 3.80087 10.0328 3.47243L5.5 1" stroke="#A5AAB4" stroke-width="2" stroke-linecap="round"/>
</svg>
