<svg width="21" height="20" viewBox="0 0 21 20" fill="none" xmlns="http://www.w3.org/2000/svg">
<path d="M10.5 17.5C14.6421 17.5 18 14.1421 18 10C18 5.85786 14.6421 2.5 10.5 2.5C6.35786 2.5 3 5.85786 3 10C3 14.1421 6.35786 17.5 10.5 17.5Z" stroke="white" stroke-width="1.5" stroke-miterlimit="10"/>
<path d="M14.8303 9.71656L8.53381 6.04956C8.48082 6.01842 8.42006 6.00131 8.35778 6C8.29552 5.99869 8.23403 6.01322 8.17962 6.0421C8.12523 6.07097 8.07989 6.11314 8.04833 6.16427C8.01675 6.21539 8.00006 6.27361 8 6.33292V13.6669C8.00006 13.7262 8.01675 13.7845 8.04833 13.8356C8.07989 13.8867 8.12523 13.9289 8.17962 13.9578C8.23403 13.9866 8.29552 14.0011 8.35778 13.9998C8.42006 13.9985 8.48082 13.9814 8.53381 13.9503L14.8303 10.2833C14.882 10.2542 14.9248 10.2127 14.9546 10.163C14.9843 10.1133 15 10.0571 15 9.99992C15 9.94272 14.9843 9.8865 14.9546 9.83681C14.9248 9.78713 14.882 9.74568 14.8303 9.71656Z" fill="white"/>
</svg>
