<svg width="58" height="58" viewBox="0 0 58 58" fill="none" xmlns="http://www.w3.org/2000/svg">
<path d="M34.0026 38.5163L44.1359 40.0541C45.4408 40.2482 46.2753 38.736 45.4576 37.6893L39.1899 29.6827C39.0177 29.4601 38.9119 29.1933 38.8848 28.9132C38.8576 28.6331 38.9101 28.351 39.0362 28.0994L43.5269 19.0475C44.1146 17.8692 42.9579 16.5216 41.7136 16.9762L32.1817 20.464C31.9223 20.5608 31.6404 20.5798 31.3703 20.5189C31.1002 20.458 30.8538 20.3198 30.661 20.1211L23.3693 12.941C23.167 12.7298 22.9045 12.586 22.6177 12.5291C22.3308 12.4722 22.0333 12.5049 21.7657 12.6228C21.4981 12.7408 21.2732 12.9382 21.1217 13.1884C20.9701 13.4385 20.8992 13.7292 20.9185 14.0211L21.298 24.2475C21.3145 24.5238 21.2503 24.799 21.113 25.0394C20.9757 25.2798 20.7714 25.475 20.525 25.6012L11.5193 30.283C10.3443 30.8946 10.5584 32.6576 11.8245 33.0189L21.5355 35.8121C21.8063 35.8888 22.0499 36.0404 22.2383 36.2494C22.4267 36.4585 22.5522 36.7165 22.6003 36.9938L24.1627 46.2861C24.4245 47.8592 26.4381 48.3414 27.3085 47.0385L32.6201 39.1256C32.7689 38.9032 32.9779 38.7277 33.2227 38.6198C33.4676 38.5119 33.7381 38.476 34.0026 38.5163V38.5163Z" stroke="#DCDEE3" stroke-width="4" stroke-linecap="round" stroke-linejoin="round"/>
</svg>
