<svg width="16" height="16" viewBox="0 0 16 16" fill="none" xmlns="http://www.w3.org/2000/svg">
<path d="M14.2563 7.57543L5.2625 2.07543C5.18679 2.02872 5.09999 2.00307 5.01106 2.0011C4.92212 1.99913 4.83427 2.02093 4.75657 2.06424C4.67887 2.10755 4.61413 2.1708 4.56903 2.24748C4.52393 2.32415 4.5001 2.41147 4.5 2.50043V13.5004C4.5001 13.5894 4.52393 13.6767 4.56903 13.7534C4.61413 13.8301 4.67887 13.8933 4.75657 13.9366C4.83427 13.9799 4.92212 14.0017 5.01106 13.9998C5.09999 13.9978 5.18679 13.9721 5.2625 13.9254L14.2563 8.42543C14.3301 8.38175 14.3913 8.31959 14.4338 8.24507C14.4763 8.17054 14.4987 8.08622 14.4987 8.00043C14.4987 7.91463 14.4763 7.83031 14.4338 7.75579C14.3913 7.68126 14.3301 7.6191 14.2563 7.57543V7.57543Z" fill="white"/>
</svg>
