<svg width="40" height="40" viewBox="0 0 40 40" fill="none" xmlns="http://www.w3.org/2000/svg">
<path d="M35.6406 18.9376L13.1562 5.18759C12.967 5.07083 12.75 5.00669 12.5276 5.00177C12.3053 4.99685 12.0857 5.05134 11.8914 5.15961C11.6972 5.26789 11.5353 5.42602 11.4226 5.61771C11.3098 5.8094 11.2502 6.0277 11.25 6.25009V33.7501C11.2502 33.9725 11.3098 34.1908 11.4226 34.3825C11.5353 34.5742 11.6972 34.7323 11.8914 34.8406C12.0857 34.9488 12.3053 35.0033 12.5276 34.9984C12.75 34.9935 12.967 34.9293 13.1562 34.8126L35.6406 21.0626C35.8253 20.9534 35.9782 20.798 36.0845 20.6117C36.1908 20.4254 36.2467 20.2146 36.2467 20.0001C36.2467 19.7856 36.1908 19.5748 36.0845 19.3885C35.9782 19.2022 35.8253 19.0468 35.6406 18.9376Z" fill="white"/>
</svg>
