<svg width="112" height="112" viewBox="0 0 112 112" fill="none" xmlns="http://www.w3.org/2000/svg">
<path d="M84 88.0135H80.4533C76.72 88.0135 73.1733 89.4602 70.56 92.0735L62.5799 99.9602C58.9399 103.553 53.0134 103.553 49.3734 99.9602L41.3933 92.0735C38.78 89.4602 35.1867 88.0135 31.5 88.0135H28C20.2533 88.0135 14 81.8068 14 74.1535V23.1935C14 15.5402 20.2533 9.3335 28 9.3335H84C91.7467 9.3335 98 15.5402 98 23.1935V74.1068C98 81.7602 91.7467 88.0135 84 88.0135Z" fill="white"/>
<path d="M84 88.0135H80.4533C76.72 88.0135 73.1733 89.4602 70.56 92.0735L62.5799 99.9602C58.9399 103.553 53.0134 103.553 49.3734 99.9602L41.3933 92.0735C38.78 89.4602 35.1867 88.0135 31.5 88.0135H28C20.2533 88.0135 14 81.8068 14 74.1535V23.1935C14 15.5402 20.2533 9.3335 28 9.3335H84C91.7467 9.3335 98 15.5402 98 23.1935V74.1068C98 81.7602 91.7467 88.0135 84 88.0135Z" stroke="#DCDEE3" stroke-width="4" stroke-miterlimit="10" stroke-linecap="round" stroke-linejoin="round"/>
<path d="M56.327 41.7659C56.1403 41.7659 55.8602 41.7659 55.6269 41.7659C50.7269 41.5792 46.8535 37.6126 46.8535 32.6659C46.8535 27.6259 50.9136 23.5659 55.9536 23.5659C60.9936 23.5659 65.0536 27.6726 65.0536 32.6659C65.1003 37.6126 61.227 41.6259 56.327 41.7659Z" stroke="#DCDEE3" stroke-width="4" stroke-linecap="round" stroke-linejoin="round"/>
<path d="M43.1687 55.8125C36.962 59.9658 36.962 66.7325 43.1687 70.8858C50.2153 75.5992 61.7887 75.5992 68.8353 70.8858C75.042 66.7325 75.042 59.9658 68.8353 55.8125C61.7887 51.1458 50.262 51.1458 43.1687 55.8125Z" stroke="#DCDEE3" stroke-width="4" stroke-linecap="round" stroke-linejoin="round"/>
</svg>
